<?xml version="1.0" encoding="UTF-8" standalone="no"?><!DOCTYPE svg PUBLIC "-//W3C//DTD SVG 1.1//EN" "http://www.w3.org/Graphics/SVG/1.1/DTD/svg11.dtd"><svg width="100%" height="100%" viewBox="0 0 337 347" version="1.1" xmlns="http://www.w3.org/2000/svg" xmlns:xlink="http://www.w3.org/1999/xlink" xml:space="preserve" xmlns:serif="http://www.serif.com/" style="fill-rule:evenodd;clip-rule:evenodd;stroke-linejoin:round;stroke-miterlimit:2;"><rect id="Artboard1" x="0" y="0" width="336.903" height="346.342" style="fill:none;"/><g><ellipse cx="169.552" cy="173.285" rx="163.641" ry="164.367" style="fill:#194b7f;"/></g><g><g><path d="M220.35,278.679c-3.501,13.304 -8.125,42.268 -8.431,56.28c-0.977,1.469 -4.884,1.68 -9.268,1.169c-2.614,-0.306 -5.404,-0.866 -7.843,-1.575c-0.436,-0.125 -0.858,-0.254 -1.263,-0.389c-2.943,-0.961 -5.164,-2.128 -5.57,-3.257c-0.089,-2.397 -0.102,-5.202 -0.063,-8.289c0.218,-17.169 2.116,-43.037 2.529,-56.406c10.081,3.021 20.215,7.842 29.909,12.467" style="fill:#d33030;fill-rule:nonzero;"/><path d="M194.808,334.553c-0.436,-0.125 -0.858,-0.254 -1.263,-0.389c-2.942,-0.961 -5.164,-2.128 -5.57,-3.257c-0.089,-2.397 -0.102,-5.202 -0.063,-8.289c0.2,-0.533 0.418,-1.053 0.644,-1.569c0.528,-1.194 1.347,-2.494 2.431,-2.355c0.533,0.065 0.997,0.495 1.368,0.988c1.118,1.512 1.514,3.641 1.788,5.678c0.145,1.081 0.264,2.166 0.363,3.258c0.175,1.972 0.277,3.95 0.302,5.935" style="fill:#fbebcc;fill-rule:nonzero;"/><path d="M202.651,336.128c-2.614,-0.306 -5.404,-0.866 -7.843,-1.575c-0.436,-0.125 -0.858,-0.254 -1.263,-0.389c0.18,-1.881 0.504,-3.741 0.96,-5.547c0.482,-1.935 1.121,-3.811 1.906,-5.579c0.524,-1.199 1.348,-2.495 2.431,-2.36c0.534,0.065 0.998,0.495 1.365,0.989c1.117,1.51 1.515,3.64 1.787,5.677c0.388,2.902 0.609,5.842 0.657,8.784" style="fill:#fbebcc;fill-rule:nonzero;"/><path d="M133.431,278.679c-3.501,13.304 -8.124,42.268 -8.431,56.28c-0.977,1.469 -4.883,1.68 -9.267,1.169c-2.615,-0.306 -5.404,-0.866 -7.844,-1.575c-0.435,-0.125 -0.856,-0.254 -1.262,-0.389c-2.943,-0.961 -5.165,-2.128 -5.569,-3.257c-0.09,-2.397 -0.103,-5.202 -0.065,-8.289c0.218,-17.169 2.116,-43.037 2.529,-56.406c10.082,3.021 20.216,7.842 29.909,12.467" style="fill:#d33030;fill-rule:nonzero;"/><path d="M112.487,217.54c1.25,-8.533 3.977,-16.717 7.938,-23.813c4.923,-8.82 11.616,-15.817 17.039,-24.157c10.534,-16.198 15.972,-37.889 13.488,-58.597c-2.485,-20.708 -13.257,-39.903 -28.448,-48.386c-13.662,-7.629 -29.554,-6.386 -43.889,-1.076c-15.878,5.883 -3.126,20.198 16.746,17.467c9.028,-1.242 18.487,0.381 26.352,6.1c7.869,5.721 13.932,15.849 14.935,27.226c1.623,18.432 -9.542,34.572 -21.004,46.201c-11.46,11.629 -24.675,22.513 -30.047,39.78c-3.453,11.1 4.092,25.213 13.428,27.137c2.785,0.573 10.852,-6.532 13.462,-7.882" style="fill:#ef5353;fill-rule:nonzero;"/><path d="M220.748,302.82c-123.678,4.946 -130.612,-32.818 -136.737,-51.251c-4.376,-13.176 -5.992,-41.004 5.778,-63.119c6.312,-11.865 27.039,-15.87 38.179,-5.942c-6.875,10.317 1.185,14.628 10.679,8.57c1.382,-0.882 2.76,-1.731 4.125,-2.543c4.153,-2.467 8.234,-4.591 12.252,-6.316c3.596,-1.55 7.135,-2.773 10.632,-3.634c4.368,-1.08 8.671,-1.592 12.914,-1.457c4.409,0.144 8.76,0.989 13.063,2.634c4.052,1.542 8.061,3.801 12.044,6.838c2.768,2.118 5.523,4.611 8.269,7.515c3.015,3.187 6.013,6.865 9.007,11.068c1.626,2.284 3.25,4.72 4.871,7.317c1.164,1.858 2.324,3.799 3.484,5.826c0.909,1.591 2.222,3.274 3.894,4.951c2.329,2.338 5.356,4.666 8.969,6.709c2.93,1.667 6.244,3.146 9.885,4.296c2.661,0.843 5.498,1.515 8.487,1.95c2.875,0.426 5.891,0.634 9.029,0.576c3.22,-0.054 6.568,-0.393 10.018,-1.065c2.136,-0.408 4.312,-0.951 6.521,-1.634c5.868,-1.811 11.979,-4.618 18.228,-8.654c11.941,-7.72 -16.182,74.667 -83.591,77.365" style="fill:#ef5353;fill-rule:nonzero;"/><path d="M114.373,70.562c-0.004,-1.485 -0.162,-2.985 -0.496,-4.497c-3.191,-14.501 -18.368,-30.111 -35.068,-21.787c-9.29,4.631 -13.817,16.672 -9.45,25.826c-7.233,3.811 -14.846,9.774 -20.346,15.687c-3.253,3.498 -6.196,7.415 -7.542,11.928c-1.345,4.512 -0.881,9.723 2.151,13.399c3.261,3.958 8.865,5.484 14.111,5.432c11.046,-0.109 21.015,-6.006 30.34,-11.709c12.572,-7.69 26.33,-20.305 26.3,-34.279" style="fill:#ef5353;fill-rule:nonzero;"/><path d="M78.994,58.214c-7.363,0 -7.376,11.021 0,11.021c7.362,0 7.375,-11.021 0,-11.021" style="fill:#461211;fill-rule:nonzero;"/><path d="M92.742,56.583c-7.363,-0 -7.376,11.021 0,11.021c7.361,0 7.374,-11.021 0,-11.021" style="fill:#461211;fill-rule:nonzero;"/><path d="M306.644,230.565c-20.306,29.335 -49.843,49.92 -80.311,55.924c-30.65,6.04 -132.847,2.15 -134.837,-76.935c-0.449,-17.825 11.088,-30.935 24.149,-51.049c-9.113,9.246 -19.33,18.025 -25.836,29.91c-0.006,0.011 -0.013,0.021 -0.018,0.03c-0.006,0.012 -0.01,0.023 -0.016,0.033c-1.204,2.205 -2.28,4.518 -3.198,6.96c-8.188,20.704 -6.491,44.311 -2.564,56.129c6.124,18.435 13.055,56.199 136.734,51.251c53.633,-2.145 82.394,-54.733 85.897,-72.253" style="fill:#fbb03c;fill-rule:nonzero;"/><path d="M153.591,332.526c-0.844,1.768 -5.199,2.762 -9.992,3.047c-2.44,0.152 -4.995,0.113 -7.255,-0.096c-0.452,-0.045 -0.887,-0.097 -1.309,-0.151c-2.875,-0.381 -5.07,-1.075 -5.591,-2.076c-0.332,-2.047 -0.652,-4.476 -0.956,-7.197l0,-0.004c-1.996,-17.811 -3.369,-47.823 -4.644,-61.423c10.33,1.001 20.936,7.999 31.086,10.654c-1.808,13.833 -2.776,43.35 -1.339,57.246" style="fill:#ef5353;fill-rule:nonzero;"/><path d="M157.246,207.903c-0.644,1.366 -2.154,1.752 -3.352,1.263c-1.194,-0.489 -2.136,-1.65 -2.968,-2.844c-3.608,-5.16 -5.967,-11.46 -8.155,-17.788c4.154,-2.467 8.236,-4.59 12.253,-6.316c1.288,7.425 2.146,14.956 2.563,22.529c0.06,1.075 0.094,2.226 -0.341,3.156" style="fill:#bc3737;fill-rule:nonzero;"/><path d="M178.57,177.128c-0.175,6.929 -0.72,13.843 -1.624,20.675c-0.142,1.063 -0.317,2.199 -0.913,2.973c-0.88,1.132 -2.419,1.069 -3.493,0.241c-1.076,-0.828 -1.775,-2.232 -2.363,-3.634c-2.443,-5.811 -3.587,-12.3 -4.521,-18.799c4.367,-1.08 8.67,-1.59 12.914,-1.456" style="fill:#bc3737;fill-rule:nonzero;"/><path d="M203.677,186.6c-2.994,6.397 -6.35,12.524 -10.036,18.32c-0.533,0.843 -1.125,1.725 -1.949,2.031c-1.206,0.453 -2.519,-0.554 -3.138,-1.935c-0.619,-1.381 -0.686,-3.042 -0.657,-4.629c0.132,-7.078 1.88,-13.916 3.736,-20.626c4.052,1.544 8.061,3.801 12.044,6.839" style="fill:#bc3737;fill-rule:nonzero;"/><path d="M220.954,205.183c-3.727,3.919 -7.635,7.564 -11.699,10.901c-0.721,0.593 -1.501,1.194 -2.354,1.161c-1.258,-0.042 -2.26,-1.515 -2.509,-3.069c-0.242,-1.558 0.103,-3.16 0.525,-4.654c1.579,-5.608 4.202,-10.608 7.03,-15.407c3.014,3.187 6.013,6.865 9.007,11.068" style="fill:#bc3737;fill-rule:nonzero;"/><path d="M233.202,223.277c-3.046,3.123 -6.215,6.032 -9.494,8.73c-0.656,0.538 -1.369,1.092 -2.154,1.059c-1.151,-0.038 -2.067,-1.386 -2.29,-2.806c-0.221,-1.424 0.094,-2.891 0.478,-4.257c1.382,-4.904 3.629,-9.294 6.082,-13.504c1.163,1.86 2.324,3.801 3.484,5.827c0.909,1.591 2.222,3.274 3.894,4.951" style="fill:#bc3737;fill-rule:nonzero;"/><path d="M252.056,234.282c-1.151,3.461 -2.405,6.863 -3.766,10.196c-0.357,0.876 -0.763,1.802 -1.453,2.27c-1.015,0.682 -2.342,0.085 -3.097,-1.017c-0.75,-1.097 -1.054,-2.564 -1.254,-3.993c-0.554,-3.876 -0.554,-7.816 -0.315,-11.752c2.93,1.666 6.243,3.145 9.885,4.296" style="fill:#bc3737;fill-rule:nonzero;"/><path d="M269.572,236.808c-0.111,1.914 -0.247,3.821 -0.418,5.729c-0.09,0.98 -0.204,2.022 -0.721,2.769c-0.759,1.092 -2.166,1.13 -3.177,0.441c-1.015,-0.693 -1.71,-1.93 -2.303,-3.177c-0.96,-2.016 -1.744,-4.144 -2.409,-6.337c2.875,0.425 5.889,0.635 9.028,0.575" style="fill:#bc3737;fill-rule:nonzero;"/><path d="M285.736,238.168c-0.631,1.215 -2.017,1.495 -3.1,0.994c-1.081,-0.505 -1.903,-1.612 -2.628,-2.742c-0.146,-0.225 -0.286,-0.445 -0.417,-0.676c2.136,-0.41 4.311,-0.951 6.52,-1.635c0.013,0.399 0.021,0.79 0.029,1.188c0.025,0.984 0.022,2.043 -0.404,2.871" style="fill:#bc3737;fill-rule:nonzero;"/><path d="M136.344,335.477c-0.452,-0.043 -0.888,-0.096 -1.309,-0.151c-2.875,-0.38 -5.07,-1.074 -5.592,-2.075c-0.332,-2.049 -0.652,-4.477 -0.955,-7.198l-0,-0.004c0.312,-1.442 0.713,-2.855 1.203,-4.215c0.414,-1.145 1.088,-2.414 2.086,-2.393c0.495,0.011 0.946,0.36 1.314,0.78c1.117,1.28 1.607,3.194 1.978,5.031c0.196,0.978 0.371,1.962 0.524,2.952c0.376,2.403 0.627,4.833 0.751,7.273" style="fill:#fbebcc;fill-rule:nonzero;"/><path d="M143.599,335.574c-2.44,0.151 -4.995,0.112 -7.255,-0.096c-0.452,-0.045 -0.887,-0.098 -1.309,-0.152c-0.055,-2.392 0.133,-4.789 0.559,-7.123c0.328,-1.816 0.802,-3.595 1.416,-5.295c0.409,-1.144 1.087,-2.413 2.085,-2.392c0.495,0.012 0.947,0.361 1.313,0.78c1.113,1.279 1.604,3.193 1.976,5.031c0.609,3.033 1.018,6.128 1.215,9.247" style="fill:#fbebcc;fill-rule:nonzero;"/><path d="M107.889,334.553c-0.435,-0.125 -0.856,-0.254 -1.262,-0.389c-2.943,-0.961 -5.165,-2.128 -5.569,-3.257c-0.09,-2.397 -0.103,-5.202 -0.065,-8.289c0.202,-0.533 0.418,-1.053 0.644,-1.569c0.529,-1.194 1.347,-2.494 2.431,-2.355c0.534,0.065 0.998,0.495 1.369,0.988c1.117,1.512 1.514,3.641 1.787,5.678c0.145,1.081 0.264,2.166 0.363,3.258c0.175,1.972 0.277,3.95 0.302,5.935" style="fill:#fbebcc;fill-rule:nonzero;"/><path d="M115.733,336.128c-2.615,-0.306 -5.404,-0.866 -7.844,-1.575c-0.435,-0.125 -0.857,-0.254 -1.262,-0.389c0.179,-1.881 0.503,-3.741 0.96,-5.547c0.482,-1.935 1.121,-3.811 1.906,-5.579c0.525,-1.199 1.347,-2.495 2.432,-2.36c0.533,0.065 0.997,0.495 1.363,0.989c1.118,1.51 1.515,3.64 1.788,5.677c0.388,2.902 0.609,5.842 0.657,8.784" style="fill:#fbebcc;fill-rule:nonzero;"/><path d="M240.51,332.526c-0.845,1.768 -5.2,2.762 -9.993,3.047c-2.439,0.152 -4.994,0.113 -7.254,-0.096c-0.452,-0.045 -0.888,-0.097 -1.31,-0.151c-2.874,-0.381 -5.071,-1.075 -5.591,-2.076c-0.333,-2.047 -0.652,-4.476 -0.955,-7.197l-0,-0.004c-1.996,-17.811 -3.369,-47.823 -4.645,-61.423c10.33,1.001 20.937,7.999 31.086,10.654c-1.809,13.833 -2.776,43.35 -1.338,57.246" style="fill:#ef5353;fill-rule:nonzero;"/><path d="M223.263,335.477c-0.453,-0.043 -0.888,-0.096 -1.311,-0.151c-2.873,-0.38 -5.07,-1.074 -5.59,-2.075c-0.333,-2.049 -0.652,-4.477 -0.956,-7.198l0,-0.004c0.312,-1.442 0.713,-2.855 1.203,-4.215c0.415,-1.145 1.088,-2.414 2.086,-2.393c0.494,0.011 0.947,0.36 1.313,0.78c1.117,1.28 1.609,3.194 1.979,5.031c0.196,0.978 0.371,1.962 0.525,2.952c0.376,2.403 0.627,4.833 0.751,7.273" style="fill:#fbebcc;fill-rule:nonzero;"/><path d="M230.517,335.574c-2.439,0.151 -4.994,0.112 -7.254,-0.096c-0.452,-0.045 -0.888,-0.098 -1.31,-0.152c-0.055,-2.392 0.133,-4.789 0.559,-7.123c0.328,-1.816 0.802,-3.595 1.416,-5.295c0.409,-1.144 1.087,-2.413 2.085,-2.392c0.495,0.012 0.947,0.361 1.314,0.78c1.112,1.279 1.604,3.193 1.975,5.031c0.609,3.033 1.019,6.128 1.215,9.247" style="fill:#fbebcc;fill-rule:nonzero;"/></g></g><g><path d="M128.926,338.015c-4.962,-8.821 11.655,-25.703 25.767,-40.298c-16.023,7.955 -34.624,24.322 -45.315,40.102l19.548,0.196Z" style="fill:#408c20;"/><path d="M141.852,337.232c-10.407,-11.472 -1.789,-18.72 16.174,-26.017c-18.518,0.601 -30.245,5.914 -31.988,25.86l15.814,0.157Z" style="fill:#408c20;"/><path d="M94.493,338.015c8.11,-16.37 -19.048,-47.7 -42.113,-74.787c26.188,14.764 56.587,45.137 74.061,74.424l-31.948,0.363Z" style="fill:#408c20;"/><path d="M260.425,342.735c-14.778,-20.4 -1.658,-54.593 35.92,-58.375c-36.915,-8.341 -57.931,22.061 -63.17,58.091l27.25,0.284Z" style="fill:#408c20;"/><path d="M227.829,341.645c9.003,-10.61 1.01,-28.394 -21.882,-30.361c22.488,-4.339 35.291,11.474 38.483,30.214l-16.601,0.147Z" style="fill:#408c20;"/><path d="M73.367,336.563c17.009,-21.292 2.925,-34.742 -26.432,-48.285c30.263,1.116 49.43,10.975 52.278,47.992l-25.846,0.293Z" style="fill:#408c20;"/></g></svg>